<?xml version="1.0" encoding="UTF-8" standalone="no"?>
<!DOCTYPE svg PUBLIC "-//W3C//DTD SVG 1.1//EN" "http://www.w3.org/Graphics/SVG/1.1/DTD/svg11.dtd">
<svg width="18px" height="18px" viewBox="0 0 18 18" version="1.1"
     xmlns="http://www.w3.org/2000/svg" xmlns:xlink="http://www.w3.org/1999/xlink" xml:space="preserve" xmlns:serif="http://www.serif.com/" style="fill-rule:evenodd;clip-rule:evenodd;">
    <g id="Rectangle" transform="matrix(1,0,0,1,-3,-3)">
        <path
            d="M20.5,7.5C20.5,5.292 18.708,3.5 16.5,3.5L7.5,3.5C5.292,3.5 3.5,5.292 3.5,7.5L3.5,16.5C3.5,18.708 5.292,20.5 7.5,20.5L16.5,20.5C18.708,20.5 20.5,18.708 20.5,16.5L20.5,7.5Z" style="fill:rgb(103,153,1);stroke:rgb(103,153,1);stroke-width:1px;"/>
    </g>
    <g transform="matrix(0.75,0,0,0.75,-4.44089e-16,-4.44089e-16)">
        <path d="M20,11L7.83,11L13.42,5.41L12,4L4,12L12,20L13.41,18.59L7.83,13L20,13L20,11Z" style="fill:rgb(0,0,0);fill-rule:nonzero;"/>
    </g>
</svg>
