<?xml version="1.0" encoding="UTF-8"?>
<svg width="290px" height="290px" viewBox="0 0 290 290" version="1.1" xmlns="http://www.w3.org/2000/svg" xmlns:xlink="http://www.w3.org/1999/xlink">
    <!-- Generator: Sketch 53.2 (72643) - https://sketchapp.com -->
    <title>noun_sunny_1893427</title>
    <desc>Created with Sketch.</desc>
    <g id="Page-1" stroke="none" stroke-width="1" fill="none" fill-rule="evenodd">
        <g id="Artboard" fill="#727272">
            <g id="noun_sunny_1893427">
                <g id="Group">
                    <path d="M152,0 C147,20 169,17 166,37 C193,40 182,12 207,14 C194,30 216,36 206,53 C230,66 230,37 252,47 C235,58 253,71 237,84 C254,105 265,77 282,96 C261,99 273,118 253,123 C261,149 282,128 290,152 C270,147 273,169 253,166 C250,193 278,182 276,207 C260,194 254,216 237,206 C224,230 253,230 243,252 C232,235 219,253 206,237 C185,254 213,265 194,282 C191,261 172,273 167,253 C141,261 162,282 138,290 C143,270 121,273 124,253 C97,250 108,278 83,276 C96,260 74,254 84,237 C60,224 60,253 38,243 C55,232 37,219 53,206 C36,185 25,213 8,194 C29,191 17,172 37,167 C29,141 8,162 0,138 C20,143 17,121 37,124 C40,97 12,108 14,83 C30,96 36,74 53,84 C66,60 37,60 47,38 C58,55 71,37 84,53 C105,36 77,25 96,8 C99,29 118,17 123,37 C149,29 128,8 152,0 Z M145,50 C197,50 240,93 240,145 C240,197 197,240 145,240 C93,240 50,197 50,145 C50,93 93,50 145,50 Z" id="Shape"></path>
                    <path d="M186,172 C189,166 198,170 195,176 C180,208 111,208 95,176 C93,170 102,166 105,172 C116,196 174,196 186,172 Z M133,133 C135,140 125,143 123,136 C119,121 97,121 93,136 C91,143 81,140 83,133 C90,109 125,109 133,133 Z M207,133 C209,140 199,143 197,136 C193,121 171,121 167,136 C165,143 155,140 157,133 C164,109 200,109 207,133 Z" id="Shape"></path>
                </g>
            </g>
        </g>
    </g>
</svg>